<svg width="119" height="119" viewBox="0 0 119 119" fill="none" xmlns="http://www.w3.org/2000/svg">
<path d="M63.9805 0C67.294 0.000247436 69.9805 2.68645 69.9805 6V42.9697C69.9805 46.2834 72.6668 48.9697 75.9805 48.9697H112.95C116.264 48.9698 118.95 51.6562 118.95 54.9697V91.9404C118.95 95.2539 116.264 97.9403 112.95 97.9404H99.9404V112.95C99.9403 116.264 97.2539 118.95 93.9404 118.95H6C2.68635 118.95 9.88685e-05 116.264 0 112.95V25.0098C0.000134264 21.6962 2.68637 19.0098 6 19.0098H21.0098V6C21.0098 2.68637 23.6962 0.000134359 27.0098 0H63.9805ZM8 21.0098C4.68638 21.0098 2.00013 23.6962 2 27.0098V110.95C2.0001 114.264 4.68635 116.95 8 116.95H91.9404C95.2539 116.95 97.9403 114.264 97.9404 110.95V97.9404H27.0098C23.6963 97.9403 21.01 95.2539 21.0098 91.9404V21.0098H8Z" fill="url(#paint0_linear_3_46)"/>
<defs>
<linearGradient id="paint0_linear_3_46" x1="44" y1="43.5" x2="134.5" y2="152.5" gradientUnits="userSpaceOnUse">
<stop stop-color="#121212"/>
<stop offset="1" stop-color="#F2F2F2"/>
</linearGradient>
</defs>
</svg>
