<svg width="119" height="119" viewBox="0 0 119 119" fill="none" xmlns="http://www.w3.org/2000/svg">
<path d="M75.98 48.97C72.6663 48.97 69.98 46.2837 69.98 42.97V6C69.98 2.6863 67.2937 0 63.98 0H27.01C23.6963 0 21.01 2.68629 21.01 6V48.97V91.94C21.01 95.2537 23.6963 97.94 27.01 97.94H69.98H112.95C116.264 97.94 118.95 95.2537 118.95 91.94V54.97C118.95 51.6563 116.264 48.97 112.95 48.97H75.98Z" fill="#121212"/>
<path d="M99.94 112.95C99.94 116.264 97.2537 118.95 93.94 118.95H6C2.6863 118.95 0 116.264 0 112.95V25.01C0 21.6963 2.68629 19.01 6 19.01H44.97C48.2837 19.01 50.97 21.6963 50.97 25.01V61.98C50.97 65.2937 53.6563 67.98 56.97 67.98H93.94C97.2537 67.98 99.94 70.6663 99.94 73.98V112.95ZM2 110.95C2 114.264 4.68629 116.95 8 116.95H91.94C95.2537 116.95 97.94 114.264 97.94 110.95V75.98C97.94 72.6663 95.2537 69.98 91.94 69.98H54.97C51.6563 69.98 48.97 67.2937 48.97 63.98V27.01C48.97 23.6963 46.2837 21.01 42.97 21.01H8.00001C4.6863 21.01 2 23.6963 2 27.01V110.95Z" fill="#121212"/>
</svg>
