<svg width="129" height="178" viewBox="0 0 129 178" fill="none" xmlns="http://www.w3.org/2000/svg">
<path d="M17 169.5C17 174.194 13.1944 178 8.5 178V178C3.80558 178 0 174.194 0 169.5V119C0 110.716 6.71573 104 15 104H62.7714C62.7758 104 62.7793 103.996 62.7793 103.992V103.992C62.7793 103.988 62.7827 103.984 62.787 103.984C80.831 103.461 95.2979 88.6707 95.2979 70.5C95.2979 52.3292 80.8308 37.5378 62.7866 37.0149C62.7825 37.0147 62.7793 37.0114 62.7793 37.0074V37.0074C62.7793 37.0033 62.776 37 62.7719 37H15C6.71573 37 0 30.2843 0 22V15C0 6.71573 6.71573 0 15 0H60.5491C60.5576 0 60.5645 0.00687436 60.5645 0.0153543V0.0153543C60.5645 0.0236624 60.5711 0.0304656 60.5794 0.0307062C98.5537 1.13069 129 32.2595 129 70.5C129 108.74 98.5539 139.868 60.5799 140.968C60.5714 140.969 60.5645 140.976 60.5645 140.984V140.984C60.5645 140.993 60.5574 141 60.5486 141H32C23.7157 141 17 147.716 17 156V169.5Z" fill="#4C4C4C"/>
</svg>
