<svg width="289" height="101" viewBox="0 0 289 101" fill="none" xmlns="http://www.w3.org/2000/svg">
<path d="M124.096 51.5518C126.954 51.5518 129.558 52.0639 131.904 53.0879C134.251 54.0692 136.256 55.4344 137.92 57.1836C139.627 58.9328 140.864 60.9598 141.632 63.2637L135.36 66.0156C134.422 63.4986 132.949 61.5577 130.944 60.1924C128.982 58.827 126.698 58.1436 124.096 58.1436C122.517 58.1436 121.13 58.421 119.936 58.9756C118.741 59.4876 117.803 60.2563 117.12 61.2803C116.48 62.2616 116.16 63.4137 116.16 64.7363C116.16 66.2722 116.651 67.6375 117.632 68.832C118.613 70.0267 120.107 70.9222 122.112 71.5195L130.432 74.1436C134.229 75.2955 137.088 76.9599 139.008 79.1357C140.928 81.269 141.888 83.9359 141.888 87.1357C141.888 89.7809 141.184 92.1279 139.776 94.1758C138.411 96.2238 136.512 97.8454 134.08 99.04C131.648 100.192 128.832 100.768 125.632 100.768C122.645 100.768 119.871 100.213 117.312 99.1035C114.752 97.9515 112.576 96.3942 110.784 94.4316C108.992 92.4691 107.67 90.2082 106.816 87.6484L113.216 84.96C114.368 87.904 116.054 90.1655 118.272 91.7441C120.491 93.3226 123.051 94.1123 125.952 94.1123C127.659 94.1123 129.152 93.8557 130.432 93.3438C131.712 92.7891 132.693 92.0214 133.376 91.04C134.101 90.0588 134.464 88.9283 134.464 87.6484C134.464 85.8992 133.973 84.5123 132.992 83.4883C132.011 82.4643 130.56 81.653 128.64 81.0557L119.68 78.2402C116.096 77.1309 113.366 75.4449 111.488 73.1836C109.611 70.8796 108.672 68.192 108.672 65.1201C108.672 62.4321 109.334 60.0854 110.656 58.0801C111.979 56.0322 113.792 54.4323 116.096 53.2803C118.442 52.1283 121.109 51.5518 124.096 51.5518ZM173.167 86.1123C173.167 87.6908 173.487 89.0779 174.127 90.2725C174.767 91.467 175.664 92.4053 176.815 93.0879C177.967 93.7278 179.29 94.0479 180.783 94.0479C182.319 94.0478 183.663 93.7071 184.815 93.0244C185.967 92.3418 186.863 91.3808 187.503 90.1436C188.185 88.9063 188.527 87.4559 188.527 85.792V65.376H195.695V100H188.847V95.7207C188.044 97.0897 186.957 98.1968 185.583 99.04C183.706 100.192 181.508 100.768 178.991 100.768C176.389 100.768 174.105 100.192 172.143 99.04C170.18 97.8454 168.644 96.2027 167.535 94.1123C166.468 91.979 165.935 89.5253 165.935 86.752V65.376H173.167V86.1123ZM234.091 100H227.243V95.5674C226.131 97.0502 224.703 98.2296 222.955 99.1035C220.736 100.213 218.304 100.768 215.659 100.768C212.331 100.768 209.344 99.9789 206.699 98.4004C204.097 96.7791 202.027 94.6027 200.491 91.8721C198.998 89.1415 198.251 86.0695 198.251 82.6562C198.251 79.2431 199.019 76.171 200.555 73.4404C202.091 70.7098 204.16 68.5543 206.763 66.9756C209.365 65.397 212.31 64.6084 215.595 64.6084C218.368 64.6084 220.822 65.1631 222.955 66.2725C224.519 67.0855 225.841 68.1281 226.923 69.3994V51.5518H234.091V100ZM265.966 64.6084C269.379 64.6084 272.429 65.3971 275.117 66.9756C277.848 68.5115 280.002 70.6454 281.581 73.376C283.202 76.064 284.014 79.1576 284.014 82.6562C284.014 86.1548 283.202 89.2694 281.581 92C279.96 94.7305 277.784 96.8852 275.054 98.4639C272.323 99.9998 269.294 100.768 265.966 100.768C262.638 100.768 259.587 99.979 256.813 98.4004C254.083 96.8217 251.906 94.6662 250.285 91.9355C248.664 89.2051 247.854 86.1119 247.854 82.6562C247.854 79.1576 248.664 76.0639 250.285 73.376C251.906 70.6453 254.083 68.5116 256.813 66.9756C259.544 65.397 262.595 64.6084 265.966 64.6084ZM155.934 65.376H163.806V71.9043H155.934V88.3516C155.934 89.5462 156.126 90.5705 156.51 91.4238C156.894 92.2344 157.512 92.8744 158.365 93.3438C159.219 93.7704 160.328 93.9844 161.693 93.9844C162.035 93.9844 162.419 93.9626 162.846 93.9199C163.272 93.8773 163.678 93.8347 164.062 93.792V100C163.464 100.085 162.802 100.171 162.077 100.256C161.352 100.341 160.712 100.384 160.157 100.384C156.531 100.384 153.715 99.3595 151.71 97.3115C149.705 95.2635 148.701 92.3839 148.701 88.6719V71.9043H142.621V65.376H143.581C145.202 65.376 146.461 64.9064 147.357 63.9678C148.253 63.0291 148.701 61.7492 148.701 60.1279V57.4404H155.934V65.376ZM50.4785 0C53.7921 0.000188396 56.4785 2.68641 56.4785 6V35.1689C56.4787 38.4825 59.1649 41.1689 62.4785 41.1689H90C93.3137 41.169 96 43.8552 96 47.1689V76.3369C96 79.6506 93.3137 82.3369 90 82.3369H80.6582V94C80.6582 97.3136 77.9717 99.9998 74.6582 100H6C2.68629 100 1.01384e-06 97.3137 0 94V21.9814C3.41095e-05 18.6678 2.68631 15.9814 6 15.9814H16.9561V6C16.9561 2.68639 19.6425 0.000159735 22.9561 0H50.4785ZM245.286 100H238.054V65.376H245.286V100ZM7.61426 17.6631C4.30055 17.6631 1.61426 20.3494 1.61426 23.6631V92.3184C1.61426 95.6321 4.30055 98.3184 7.61426 98.3184H73.0439C76.3575 98.3182 79.0439 95.632 79.0439 92.3184V82.3369H22.9561C19.6425 82.3368 16.9561 79.6505 16.9561 76.3369V17.6631H7.61426ZM216.363 71.3281C214.358 71.3281 212.544 71.8185 210.923 72.7998C209.302 73.7811 208.043 75.1255 207.147 76.832C206.251 78.5387 205.803 80.4803 205.803 82.6562C205.803 84.8322 206.251 86.7947 207.147 88.5439C208.043 90.2505 209.281 91.5949 210.859 92.5762C212.481 93.5574 214.315 94.0479 216.363 94.0479C218.369 94.0478 220.161 93.5575 221.739 92.5762C223.361 91.5949 224.619 90.2505 225.515 88.5439C226.453 86.7947 226.923 84.8322 226.923 82.6562C226.923 80.4803 226.453 78.5387 225.515 76.832C224.619 75.1255 223.361 73.7811 221.739 72.7998C220.161 71.8185 218.369 71.3282 216.363 71.3281ZM265.966 71.3281C263.96 71.3281 262.147 71.8185 260.525 72.7998C258.947 73.7811 257.688 75.1254 256.749 76.832C255.853 78.5386 255.405 80.4803 255.405 82.6562C255.405 84.8321 255.853 86.7947 256.749 88.5439C257.688 90.2506 258.947 91.5948 260.525 92.5762C262.147 93.5575 263.96 94.0479 265.966 94.0479C268.014 94.0478 269.827 93.5574 271.405 92.5762C272.984 91.5949 274.221 90.2506 275.117 88.5439C276.056 86.7947 276.525 84.8322 276.525 82.6562C276.525 80.4803 276.056 78.5387 275.117 76.832C274.221 75.1254 272.984 73.7811 271.405 72.7998C269.827 71.8186 268.014 71.3282 265.966 71.3281ZM245.286 60.6396H238.054V52.3203H245.286V60.6396ZM153.924 12.6084C156.526 12.6084 158.852 13.0561 160.9 13.9521C162.948 14.8481 164.676 16.0855 166.084 17.6641C167.492 19.2 168.559 20.9704 169.284 22.9756C170.052 24.9809 170.436 27.1147 170.436 29.376C170.436 29.9305 170.415 30.5064 170.372 31.1035C170.329 31.7007 170.244 32.2557 170.116 32.7676H144.345C144.427 34.2528 144.761 35.597 145.348 36.7998C146.244 38.5491 147.481 39.9152 149.06 40.8965C150.681 41.8778 152.516 42.3682 154.564 42.3682C156.655 42.3681 158.425 41.8986 159.876 40.96C161.369 40.0213 162.543 38.8049 163.396 37.3115L169.284 40.1924C168.602 41.8136 167.535 43.2858 166.084 44.6084C164.676 45.8883 162.969 46.9117 160.964 47.6797C159.001 48.405 156.847 48.7676 154.5 48.7676C151.044 48.7676 147.972 47.9789 145.284 46.4004C142.639 44.7791 140.57 42.6027 139.076 39.8721C137.583 37.0987 136.836 34.0051 136.836 30.5918C136.836 27.0932 137.583 23.9995 139.076 21.3115C140.612 18.6237 142.66 16.5115 145.22 14.9756C147.78 13.3969 150.681 12.6084 153.924 12.6084ZM116.48 41.2803H137.088V48H108.928V0.320312H116.48V41.2803ZM211.222 12.6084C213.611 12.6084 215.766 13.1632 217.686 14.2725C219.648 15.3818 221.206 16.9172 222.358 18.8799C223.51 20.8424 224.086 23.0825 224.086 25.5996V48H216.854V27.584C216.854 25.8347 216.534 24.3626 215.894 23.168C215.296 21.9307 214.443 20.9915 213.334 20.3516C212.267 19.669 211.008 19.3281 209.558 19.3281C208.107 19.3282 206.827 19.669 205.718 20.3516C204.608 20.9916 203.734 21.9306 203.094 23.168C202.454 24.4053 202.134 25.8774 202.134 27.584V48H194.966V27.584C194.966 25.8347 194.646 24.3626 194.006 23.168C193.409 21.9307 192.556 20.9915 191.446 20.3516C190.38 19.669 189.1 19.3282 187.606 19.3281C186.156 19.3281 184.875 19.6689 183.766 20.3516C182.656 20.9916 181.782 21.9307 181.142 23.168C180.544 24.4053 180.246 25.8774 180.246 27.584V48H173.014V13.376H179.926V17.6094C180.678 16.277 181.701 15.2073 182.998 14.4004C184.918 13.2057 187.115 12.6084 189.59 12.6084C192.363 12.6084 194.817 13.3543 196.95 14.8477C198.423 15.8297 199.562 17.038 200.37 18.4697C201.303 16.8658 202.489 15.5948 203.926 14.6562C206.059 13.291 208.491 12.6085 211.222 12.6084ZM265.555 12.6084C267.944 12.6084 270.099 13.1632 272.019 14.2725C273.981 15.3818 275.538 16.9173 276.69 18.8799C277.842 20.8424 278.419 23.0824 278.419 25.5996V48H271.187V27.584C271.187 25.8347 270.867 24.3626 270.227 23.168C269.629 21.9306 268.775 20.9916 267.666 20.3516C266.599 19.6691 265.341 19.3281 263.891 19.3281C262.44 19.3281 261.16 19.6691 260.051 20.3516C258.941 20.9915 258.067 21.9307 257.427 23.168C256.787 24.4053 256.467 25.8773 256.467 27.584V48H249.299V27.584C249.299 25.8347 248.979 24.3626 248.339 23.168C247.742 21.9306 246.888 20.9916 245.778 20.3516C244.712 19.669 243.432 19.3281 241.938 19.3281C240.488 19.3281 239.208 19.669 238.099 20.3516C236.989 20.9915 236.115 21.9307 235.475 23.168C234.877 24.4053 234.578 25.8773 234.578 27.584V48H227.347V13.376H234.259V17.6094C235.01 16.2772 236.034 15.2072 237.33 14.4004C239.25 13.2057 241.448 12.6084 243.923 12.6084C246.696 12.6085 249.149 13.3545 251.282 14.8477C252.755 15.8297 253.895 17.0379 254.703 18.4697C255.636 16.8658 256.822 15.5948 258.259 14.6562C260.392 13.291 262.824 12.6084 265.555 12.6084ZM288.911 48H281.679V13.376H288.911V48ZM153.924 18.6885C152.004 18.6885 150.297 19.1789 148.804 20.1602C147.311 21.0988 146.158 22.464 145.348 24.2559C144.963 25.0865 144.69 26.004 144.526 27.0078H162.792C162.747 25.9532 162.522 24.972 162.116 24.0645C161.434 22.4005 160.367 21.0988 158.916 20.1602C157.508 19.1788 155.844 18.6885 153.924 18.6885ZM288.911 8.63965H281.679V0.320312H288.911V8.63965Z" fill="#121212"/>
</svg>
