<svg width="308" height="116" viewBox="0 0 308 116" fill="none" xmlns="http://www.w3.org/2000/svg">
<path d="M69.4782 49.1686C66.1645 49.1686 63.4782 46.4823 63.4782 43.1686V14C63.4782 10.6863 60.7919 8 57.4782 8H29.9564C26.6426 8 23.9564 10.6863 23.9564 14V49.1686V84.3371C23.9564 87.6508 26.6427 90.3371 29.9564 90.3371H63.4782H97C100.314 90.3371 103 87.6508 103 84.3371V55.1686C103 51.8548 100.314 49.1686 97 49.1686H69.4782Z" fill="#121212"/>
<path d="M87.6577 102C87.6577 105.314 84.9715 108 81.6577 108H13C9.6863 108 7 105.314 7 102V29.9815C7 26.6678 9.68629 23.9815 13 23.9815H42.1359C45.4497 23.9815 48.1359 26.6678 48.1359 29.9815V59.1501C48.1359 62.4638 50.8222 65.1501 54.1359 65.1501H81.6578C84.9715 65.1501 87.6577 67.8364 87.6577 71.1501V102ZM8.61412 100.319C8.61412 103.632 11.3004 106.319 14.6141 106.319H80.0436C83.3573 106.319 86.0436 103.632 86.0436 100.319V72.8314C86.0436 69.5177 83.3573 66.8314 80.0436 66.8314H52.5218C49.2081 66.8314 46.5218 64.1451 46.5218 60.8314V31.6629C46.5218 28.3492 43.8355 25.6629 40.5218 25.6629H14.6141C11.3004 25.6629 8.61412 28.3492 8.61412 31.6629V100.319Z" fill="#121212"/>
<path d="M115.928 56V8.32H123.48V49.28H144.088V56H115.928ZM161.5 56.768C158.044 56.768 154.972 55.9787 152.284 54.4C149.639 52.7787 147.569 50.6027 146.076 47.872C144.583 45.0987 143.836 42.0053 143.836 38.592C143.836 35.0933 144.583 32 146.076 29.312C147.612 26.624 149.66 24.512 152.22 22.976C154.78 21.3973 157.681 20.608 160.924 20.608C163.527 20.608 165.852 21.056 167.9 21.952C169.948 22.848 171.676 24.0853 173.084 25.664C174.492 27.2 175.559 28.9707 176.284 30.976C177.052 32.9813 177.436 35.1147 177.436 37.376C177.436 37.9307 177.415 38.5067 177.372 39.104C177.329 39.7013 177.244 40.256 177.116 40.768H149.532V35.008H173.02L169.564 37.632C169.991 35.5413 169.841 33.6853 169.116 32.064C168.433 30.4 167.367 29.0987 165.916 28.16C164.508 27.1787 162.844 26.688 160.924 26.688C159.004 26.688 157.297 27.1787 155.804 28.16C154.311 29.0987 153.159 30.464 152.348 32.256C151.537 34.0053 151.217 36.1387 151.388 38.656C151.175 41.0027 151.495 43.0507 152.348 44.8C153.244 46.5493 154.481 47.9147 156.06 48.896C157.681 49.8773 159.516 50.368 161.564 50.368C163.655 50.368 165.425 49.8987 166.876 48.96C168.369 48.0213 169.543 46.8053 170.396 45.312L176.284 48.192C175.601 49.8133 174.535 51.2853 173.084 52.608C171.676 53.888 169.969 54.912 167.964 55.68C166.001 56.4053 163.847 56.768 161.5 56.768ZM180.014 56V21.376H186.926V28.864L186.03 27.712C186.755 25.3653 188.078 23.5947 189.998 22.4C191.918 21.2053 194.115 20.608 196.59 20.608C199.363 20.608 201.817 21.3547 203.95 22.848C206.126 24.2987 207.577 26.24 208.302 28.672L206.254 28.864C207.278 26.0907 208.835 24.0213 210.926 22.656C213.059 21.2907 215.491 20.608 218.222 20.608C220.611 20.608 222.766 21.1627 224.686 22.272C226.649 23.3813 228.206 24.9173 229.358 26.88C230.51 28.8427 231.086 31.0827 231.086 33.6V56H223.854V35.584C223.854 33.8347 223.534 32.3627 222.894 31.168C222.297 29.9307 221.443 28.992 220.334 28.352C219.267 27.6693 218.009 27.328 216.558 27.328C215.107 27.328 213.827 27.6693 212.718 28.352C211.609 28.992 210.734 29.9307 210.094 31.168C209.454 32.4053 209.134 33.8773 209.134 35.584V56H201.966V35.584C201.966 33.8347 201.646 32.3627 201.006 31.168C200.409 29.9307 199.555 28.992 198.446 28.352C197.379 27.6693 196.099 27.328 194.606 27.328C193.155 27.328 191.875 27.6693 190.766 28.352C189.657 28.992 188.782 29.9307 188.142 31.168C187.545 32.4053 187.246 33.8773 187.246 35.584V56H180.014ZM234.346 56V21.376H241.258V28.864L240.362 27.712C241.088 25.3653 242.41 23.5947 244.33 22.4C246.25 21.2053 248.448 20.608 250.922 20.608C253.696 20.608 256.149 21.3547 258.282 22.848C260.458 24.2987 261.909 26.24 262.634 28.672L260.586 28.864C261.61 26.0907 263.168 24.0213 265.258 22.656C267.392 21.2907 269.824 20.608 272.555 20.608C274.944 20.608 277.099 21.1627 279.019 22.272C280.981 23.3813 282.539 24.9173 283.69 26.88C284.842 28.8427 285.418 31.0827 285.418 33.6V56H278.187V35.584C278.187 33.8347 277.867 32.3627 277.227 31.168C276.629 29.9307 275.776 28.992 274.667 28.352C273.6 27.6693 272.341 27.328 270.89 27.328C269.44 27.328 268.16 27.6693 267.05 28.352C265.941 28.992 265.066 29.9307 264.426 31.168C263.786 32.4053 263.466 33.8773 263.466 35.584V56H256.298V35.584C256.298 33.8347 255.978 32.3627 255.338 31.168C254.741 29.9307 253.888 28.992 252.778 28.352C251.712 27.6693 250.432 27.328 248.938 27.328C247.488 27.328 246.208 27.6693 245.098 28.352C243.989 28.992 243.114 29.9307 242.474 31.168C241.877 32.4053 241.578 33.8773 241.578 35.584V56H234.346ZM288.679 56V21.376H295.911V56H288.679ZM288.679 16.64V8.32H295.911V16.64H288.679ZM132.632 108.768C129.645 108.768 126.872 108.213 124.312 107.104C121.752 105.952 119.576 104.395 117.784 102.432C115.992 100.469 114.669 98.208 113.816 95.648L120.216 92.96C121.368 95.904 123.053 98.1653 125.272 99.744C127.491 101.323 130.051 102.112 132.952 102.112C134.659 102.112 136.152 101.856 137.432 101.344C138.712 100.789 139.693 100.021 140.376 99.04C141.101 98.0587 141.464 96.928 141.464 95.648C141.464 93.8987 140.973 92.512 139.992 91.488C139.011 90.464 137.56 89.6533 135.64 89.056L126.68 86.24C123.096 85.1307 120.365 83.4453 118.488 81.184C116.611 78.88 115.672 76.192 115.672 73.12C115.672 70.432 116.333 68.0853 117.656 66.08C118.979 64.032 120.792 62.432 123.096 61.28C125.443 60.128 128.109 59.552 131.096 59.552C133.955 59.552 136.557 60.064 138.904 61.088C141.251 62.0693 143.256 63.4347 144.92 65.184C146.627 66.9333 147.864 68.96 148.632 71.264L142.36 74.016C141.421 71.4987 139.949 69.5573 137.944 68.192C135.981 66.8267 133.699 66.144 131.096 66.144C129.517 66.144 128.131 66.4213 126.936 66.976C125.741 67.488 124.803 68.256 124.12 69.28C123.48 70.2613 123.16 71.4133 123.16 72.736C123.16 74.272 123.651 75.6373 124.632 76.832C125.613 78.0267 127.107 78.9227 129.112 79.52L137.432 82.144C141.229 83.296 144.088 84.96 146.008 87.136C147.928 89.2693 148.888 91.936 148.888 95.136C148.888 97.7813 148.184 100.128 146.776 102.176C145.411 104.224 143.512 105.845 141.08 107.04C138.648 108.192 135.832 108.768 132.632 108.768ZM167.158 108.384C163.531 108.384 160.715 107.36 158.71 105.312C156.704 103.264 155.702 100.384 155.702 96.672V79.904H149.622V73.376H150.582C152.203 73.376 153.462 72.9067 154.358 71.968C155.254 71.0293 155.702 69.7493 155.702 68.128V65.44H162.934V73.376H170.806V79.904H162.934V96.352C162.934 97.5467 163.126 98.5707 163.51 99.424C163.894 100.235 164.512 100.875 165.366 101.344C166.219 101.771 167.328 101.984 168.694 101.984C169.035 101.984 169.419 101.963 169.846 101.92C170.272 101.877 170.678 101.835 171.062 101.792V108C170.464 108.085 169.803 108.171 169.078 108.256C168.352 108.341 167.712 108.384 167.158 108.384ZM185.991 108.768C183.388 108.768 181.106 108.192 179.143 107.04C177.18 105.845 175.644 104.203 174.535 102.112C173.468 99.9787 172.935 97.5253 172.935 94.752V73.376H180.167V94.112C180.167 95.6907 180.487 97.0773 181.127 98.272C181.767 99.4667 182.663 100.405 183.815 101.088C184.967 101.728 186.29 102.048 187.783 102.048C189.319 102.048 190.663 101.707 191.815 101.024C192.967 100.341 193.863 99.3813 194.503 98.144C195.186 96.9067 195.527 95.456 195.527 93.792V73.376H202.695V108H195.847V101.216L196.615 102.112C195.804 104.245 194.46 105.888 192.583 107.04C190.706 108.192 188.508 108.768 185.991 108.768ZM222.659 108.768C219.331 108.768 216.344 107.979 213.699 106.4C211.096 104.779 209.027 102.603 207.491 99.872C205.998 97.1413 205.251 94.0693 205.251 90.656C205.251 87.2427 206.019 84.1707 207.555 81.44C209.091 78.7093 211.16 76.5547 213.763 74.976C216.366 73.3973 219.31 72.608 222.595 72.608C225.368 72.608 227.822 73.1627 229.955 74.272C232.088 75.3813 233.774 76.9173 235.011 78.88L233.923 80.544V59.552H241.091V108H234.243V100.96L235.075 102.304C233.88 104.395 232.174 105.995 229.955 107.104C227.736 108.213 225.304 108.768 222.659 108.768ZM223.363 102.048C225.368 102.048 227.16 101.557 228.739 100.576C230.36 99.5947 231.619 98.2507 232.515 96.544C233.454 94.7947 233.923 92.832 233.923 90.656C233.923 88.48 233.454 86.5387 232.515 84.832C231.619 83.1253 230.36 81.7813 228.739 80.8C227.16 79.8187 225.368 79.328 223.363 79.328C221.358 79.328 219.544 79.8187 217.923 80.8C216.302 81.7813 215.043 83.1253 214.147 84.832C213.251 86.5387 212.803 88.48 212.803 90.656C212.803 92.832 213.251 94.7947 214.147 96.544C215.043 98.2507 216.28 99.5947 217.859 100.576C219.48 101.557 221.315 102.048 223.363 102.048ZM245.054 108V73.376H252.286V108H245.054ZM245.054 68.64V60.32H252.286V68.64H245.054ZM272.966 108.768C269.638 108.768 266.587 107.979 263.814 106.4C261.083 104.821 258.907 102.667 257.286 99.936C255.664 97.2053 254.854 94.112 254.854 90.656C254.854 87.1573 255.664 84.064 257.286 81.376C258.907 78.6453 261.083 76.512 263.814 74.976C266.544 73.3973 269.595 72.608 272.966 72.608C276.379 72.608 279.43 73.3973 282.118 74.976C284.848 76.512 287.003 78.6453 288.582 81.376C290.203 84.064 291.014 87.1573 291.014 90.656C291.014 94.1547 290.203 97.2693 288.582 100C286.96 102.731 284.784 104.885 282.054 106.464C279.323 108 276.294 108.768 272.966 108.768ZM272.966 102.048C275.014 102.048 276.827 101.557 278.406 100.576C279.984 99.5947 281.222 98.2507 282.118 96.544C283.056 94.7947 283.526 92.832 283.526 90.656C283.526 88.48 283.056 86.5387 282.118 84.832C281.222 83.1253 279.984 81.7813 278.406 80.8C276.827 79.8187 275.014 79.328 272.966 79.328C270.96 79.328 269.147 79.8187 267.526 80.8C265.947 81.7813 264.688 83.1253 263.75 84.832C262.854 86.5387 262.406 88.48 262.406 90.656C262.406 92.832 262.854 94.7947 263.75 96.544C264.688 98.2507 265.947 99.5947 267.526 100.576C269.147 101.557 270.96 102.048 272.966 102.048Z" fill="black"/>
</svg>
